PathFileType	4	(x/y/z)	A01_FAST_T0022.trc
DataRate	CameraRate	NumFrames	NumMarkers	Units	OrigDataRate	OrigDataStartFrame	OrigNumFrames
240	240	10	48	mm	240	75	299
Frame#	Time	TOP_HEAD			R_AC			L_AC			R_ASIS			L_ASIS			R_PSIS			L_PSIS			SACRAL			L_IC			R_IC			L_GT			R_GT			R_LAT_KNEE			R_MED_KNEE			L_MED_KNEE			L_LAT_KNEE			R_TOE			L_TOE			R_1ST_MET			L_1ST_MET			L_5TH_MET			R_5TH_MET			R_LAT_ANK			R_MED_ANK			L_MED_ANK			L_LAT_ANK			L_HEEL_SUP			R_HEEL_SUP			L_HEEL_LAT			R_HEEL_LAT			L_HEEL_MED			R_HEEL_MED			R_LL_PROX_POST			R_LL_PROX_ANT			R_LL_DIST_ANT			R_LL_DIST_POST			R_THIGH_PROX_POST			R_THIGH_PROX_ANT			R_THIGH_DIST_ANT			R_THIGH_DIST_POST			L_PROS_PROX_ANT			L_PROS_PROX_POST			L_PROS_DIST_POST			L_PROS_DIST_ANT			L_THIGH_PROX_ANT			L_THIGH_PROX_POST			L_THIGH_DIST_POST			L_THIGH_DIST_ANT			
		X1	Y1	Z1	X2	Y2	Z2	X3	Y3	Z3	X4	Y4	Z4	X5	Y5	Z5	X6	Y6	Z6	X7	Y7	Z7	X8	Y8	Z8	X9	Y9	Z9	X10	Y10	Z10	X11	Y11	Z11	X12	Y12	Z12	X13	Y13	Z13	X14	Y14	Z14	X15	Y15	Z15	X16	Y16	Z16	X17	Y17	Z17	X18	Y18	Z18	X19	Y19	Z19	X20	Y20	Z20	X21	Y21	Z21	X22	Y22	Z22	X23	Y23	Z23	X24	Y24	Z24	X25	Y25	Z25	X26	Y26	Z26	X27	Y27	Z27	X28	Y28	Z28	X29	Y29	Z29	X30	Y30	Z30	X31	Y31	Z31	X32	Y32	Z32	X33	Y33	Z33	X34	Y34	Z34	X35	Y35	Z35	X36	Y36	Z36	X37	Y37	Z37	X38	Y38	Z38	X39	Y39	Z39	X40	Y40	Z40	X41	Y41	Z41	X42	Y42	Z42	X43	Y43	Z43	X44	Y44	Z44	X45	Y45	Z45	X46	Y46	Z46	X47	Y47	Z47	X48	Y48	Z48	

75	0.30937	-193.89	1765.2	245.93	-401.87	1571	516.5	-434.47	1537.1	57.218	-433.47	1089.5	519.6	-416.9	1032.9	168.84	-644.91	1087.1	384.81	-632.23	1093.7	252.94	-654.79	1060.5	317.16	-441.82	1144	123.8	-466.98	1210.1	514.88	-477.93	953.48	128.21	-498.7	977.89	558.93	-466.52	573.15	533.03	-419.49	551.21	406.46	-392.66	564.74	347.19	-418.73	566.31	191.43	-708.49	71.228	440.58	-258.04	83.934	262.25	-768.32	124.74	385.98	-335.09	57.039	321.45	-369.45	46.689	193.72	-800.92	149.22	513.45	-813.66	283.49	481.9	-791.31	277.45	381.66	-461.03	128.99	305.61	-495.63	118.46	240.46	-581.25	74.42	286.24	-889.75	336.91	411.19	-570.06	45.808	254.6	-908.56	320.15	446.12	-559.41	45.126	318.21	-904.39	313.04	386.19	-643.7	519.09	515.39	-606	462.89	543.73	-656.14	409.24	523.2	-689.96	450.65	505.02	-521.32	829.93	548.35	-455.08	858.16	554.11	-440.42	767.42	555.22	-503.61	741.82	545.86	-376.86	481.86	205.19	-432.37	484.32	196.79	-441.73	422.86	207.88	-387.88	427.16	214.7	-397.34	817.98	162.42	-468.14	815.41	148.53	-448.66	742.3	161.4	-384	745.91	173.53
76	0.31355	-187.52	1765.8	246.32	-396.52	1571.7	516.8	-427.95	1538	57.35	-426.72	1090.5	518.82	-410.86	1033.4	168.25	-638.68	1087.8	384.33	-626.02	1094.6	252.44	-648.6	1061.3	316.64	-435.76	1144.8	123.42	-460.89	1210.5	514.57	-472.13	954.16	127.66	-491.87	978.63	558.31	-454.89	574.2	532.48	-408.6	552.91	405.76	-390.23	564.67	346.99	-416.21	566.33	191.28	-688.38	71.951	440.26	-257.91	83.809	262.24	-749.88	123.57	385.82	-335.01	57.033	321.42	-369.41	46.715	193.74	-782.64	147.35	513.45	-799.05	281.02	481.67	-776.93	275.41	381.35	-460.77	129.22	305.64	-495.24	118.89	240.43	-581.06	74.881	286.25	-877.03	332.42	411.22	-569.99	46.195	254.62	-895.25	315.2	446.18	-559.3	45.543	318.21	-891	308.07	386.3	-631.57	518.24	515.62	-593.16	462.38	543.6	-642.83	408.26	523.11	-677.15	449.35	505.19	-512.59	830.46	547.9	-446.55	859.4	553.55	-431.01	768.82	554.68	-493.94	742.54	545.47	-374.76	481.68	205.05	-430.25	484.41	196.65	-439.94	423.01	207.77	-386.05	427.04	214.58	-392.49	818.07	162.13	-463.29	816.04	148.18	-444.39	742.78	161.1	-379.68	745.92	173.29
77	0.31773	-181.15	1766.5	246.74	-391.15	1572.3	517.11	-421.44	1538.9	57.498	-419.97	1091.4	518.02	-404.85	1033.9	167.66	-632.47	1088.6	383.85	-619.83	1095.5	251.96	-642.44	1062.2	316.13	-429.73	1145.7	123.04	-454.79	1210.9	514.27	-466.36	954.82	127.1	-485.09	979.39	557.7	-443.34	575.28	531.89	-397.48	554.65	405.03	-387.78	564.61	346.81	-413.69	566.35	191.15	-668.12	72.517	439.91	-257.79	83.675	262.22	-731.26	122.23	385.65	-334.93	57.026	321.39	-369.36	46.739	193.77	-764.17	145.26	513.43	-784.25	278.27	481.47	-762.38	273.11	381.05	-460.49	129.45	305.68	-494.84	119.33	240.41	-580.86	75.363	286.25	-864.07	327.59	411.29	-569.91	46.603	254.63	-881.69	309.92	446.28	-559.18	45.978	318.21	-877.35	302.79	386.44	-619.47	517.26	515.85	-580.29	461.76	543.45	-629.45	407.15	523	-664.3	447.88	505.37	-503.93	831.02	547.44	-438.11	860.64	552.98	-421.7	770.23	554.12	-484.36	743.29	545.05	-372.66	481.5	204.94	-428.13	484.5	196.54	-438.14	423.17	207.67	-384.22	426.94	214.48	-387.68	818.14	161.85	-458.46	816.65	147.83	-440.14	743.25	160.82	-375.39	745.91	173.07
78	0.32191	-174.8	1767.1	247.19	-385.76	1573	517.4	-414.93	1539.7	57.66	-413.22	1092.3	517.21	-398.86	1034.4	167.07	-626.27	1089.3	383.39	-613.65	1096.4	251.47	-636.28	1063	315.64	-423.73	1146.5	122.66	-448.67	1211.2	514	-460.6	955.45	126.56	-478.36	980.17	557.09	-431.89	576.38	531.26	-386.22	556.43	404.27	-385.31	564.55	346.67	-411.16	566.38	191.03	-647.73	72.934	439.54	-257.66	83.533	262.2	-712.46	120.71	385.46	-334.84	57.019	321.36	-369.32	46.763	193.8	-745.52	142.98	513.4	-769.26	275.25	481.3	-747.65	270.54	380.78	-460.2	129.71	305.71	-494.43	119.78	240.38	-580.66	75.866	286.26	-850.87	322.45	411.39	-569.83	47.032	254.65	-867.87	304.34	446.4	-559.05	46.429	318.2	-863.43	297.2	386.59	-607.4	516.14	516.08	-567.41	461.05	543.29	-616.02	405.9	522.89	-651.42	446.23	505.55	-495.36	831.6	546.97	-429.74	861.88	552.39	-412.48	771.66	553.53	-474.87	744.07	544.61	-370.56	481.34	204.84	-426.01	484.6	196.44	-436.34	423.35	207.58	-382.39	426.85	214.38	-382.89	818.18	161.59	-453.65	817.24	147.5	-435.91	743.71	160.56	-371.13	745.88	172.87
79	0.32609	-168.44	1767.8	247.67	-380.35	1573.6	517.69	-408.42	1540.6	57.833	-406.49	1093.2	516.4	-392.89	1034.9	166.49	-620.09	1090.1	382.93	-607.5	1097.3	251	-630.14	1063.8	315.16	-417.73	1147.4	122.29	-442.54	1211.6	513.75	-454.88	956.05	126.03	-471.67	980.95	556.5	-420.53	577.5	530.6	-374.87	558.24	403.5	-382.82	564.5	346.54	-408.64	566.41	190.93	-627.23	73.213	439.14	-257.52	83.382	262.18	-693.5	119.02	385.26	-334.74	57.011	321.32	-369.27	46.786	193.83	-726.71	140.51	513.35	-754.08	271.97	481.14	-732.74	267.72	380.53	-459.89	129.97	305.74	-494.02	120.25	240.36	-580.46	76.386	286.26	-837.43	317.01	411.53	-569.75	47.481	254.66	-853.8	298.48	446.55	-558.92	46.895	318.2	-849.24	291.33	386.75	-595.36	514.88	516.29	-554.53	460.26	543.13	-602.54	404.54	522.77	-638.51	444.44	505.73	-486.86	832.18	546.49	-421.46	863.13	551.79	-403.35	773.09	552.93	-465.46	744.86	544.16	-368.45	481.17	204.76	-423.88	484.71	196.35	-434.52	423.53	207.5	-380.55	426.76	214.3	-378.14	818.22	161.35	-448.85	817.81	147.18	-431.7	744.15	160.32	-366.9	745.84	172.69
80	0.33027	-162.1	1768.4	248.18	-374.91	1574.2	517.97	-401.91	1541.5	58.016	-399.81	1094	515.59	-386.94	1035.3	165.9	-613.91	1090.8	382.48	-601.36	1098.1	250.53	-624.02	1064.6	314.69	-411.75	1148.2	121.93	-436.4	1211.9	513.52	-449.17	956.61	125.5	-465.02	981.73	555.92	-409.28	578.64	529.89	-363.49	560.08	402.7	-380.29	564.44	346.43	-406.1	566.45	190.84	-606.62	73.364	438.73	-257.37	83.224	262.16	-674.39	117.2	385.04	-334.65	57.002	321.28	-369.22	46.809	193.85	-707.73	137.89	513.28	-738.71	268.46	481	-717.67	264.66	380.3	-459.56	130.25	305.76	-493.59	120.73	240.34	-580.27	76.924	286.25	-823.74	311.28	411.69	-569.66	47.946	254.67	-839.48	292.35	446.72	-558.79	47.375	318.19	-834.78	285.2	386.94	-583.35	513.51	516.48	-541.64	459.39	542.94	-589.02	403.06	522.64	-625.58	442.49	505.89	-478.45	832.78	546	-413.26	864.37	551.19	-394.31	774.54	552.31	-456.15	745.67	543.69	-366.33	481.01	204.69	-421.74	484.82	196.28	-432.69	423.72	207.42	-378.7	426.69	214.23	-373.41	818.23	161.12	-444.06	818.36	146.87	-427.5	744.57	160.09	-362.69	745.79	172.53
81	0.33445	-155.76	1768.9	248.72	-369.44	1574.8	518.24	-395.39	1542.4	58.206	-393.21	1094.9	514.79	-381.02	1035.7	165.33	-607.75	1091.6	382.04	-595.24	1098.9	250.07	-617.9	1065.4	314.24	-405.78	1149.1	121.56	-430.26	1212.2	513.32	-443.48	957.14	124.98	-458.39	982.52	555.35	-398.14	579.79	529.16	-352.13	561.94	401.88	-377.73	564.38	346.33	-403.55	566.5	190.76	-585.93	73.401	438.3	-257.22	83.058	262.14	-655.14	115.23	384.8	-334.55	56.992	321.24	-369.16	46.831	193.88	-688.59	135.11	513.2	-723.16	264.72	480.88	-702.42	261.38	380.09	-459.2	130.55	305.78	-493.14	121.23	240.32	-580.07	77.477	286.24	-809.81	305.3	411.88	-569.56	48.428	254.68	-824.88	285.98	446.92	-558.66	47.867	318.18	-820.05	278.83	387.14	-571.37	512.02	516.64	-528.77	458.46	542.73	-575.46	401.49	522.49	-612.62	440.42	506.03	-470.11	833.39	545.52	-405.14	865.61	550.57	-385.35	775.98	551.68	-446.92	746.49	543.22	-364.2	480.86	204.63	-419.58	484.94	196.21	-430.85	423.92	207.35	-376.83	426.62	214.16	-368.71	818.22	160.9	-439.29	818.89	146.57	-423.31	744.98	159.87	-358.5	745.71	172.38
82	0.33863	-149.42	1769.5	249.28	-363.94	1575.3	518.5	-388.87	1543.3	58.403	-386.7	1095.8	514	-375.1	1036	164.75	-601.61	1092.3	381.61	-589.15	1099.7	249.63	-611.8	1066.1	313.81	-399.81	1150	121.2	-424.12	1212.5	513.13	-437.81	957.63	124.48	-451.79	983.31	554.81	-387.11	580.94	528.4	-340.83	563.8	401.05	-375.13	564.32	346.25	-400.98	566.54	190.7	-565.17	73.336	437.86	-257.07	82.886	262.11	-635.75	113.15	384.56	-334.45	56.98	321.19	-369.1	46.854	193.9	-669.3	132.21	513.1	-707.43	260.77	480.78	-687.01	257.9	379.9	-458.81	130.87	305.79	-492.69	121.74	240.3	-579.88	78.043	286.23	-795.64	299.08	412.1	-569.46	48.923	254.68	-810.02	279.38	447.15	-558.52	48.37	318.16	-805.06	272.23	387.35	-559.43	510.42	516.77	-515.9	457.46	542.5	-561.88	399.84	522.33	-599.65	438.22	506.15	-461.84	834	545.03	-397.11	866.84	549.96	-376.49	777.43	551.04	-437.78	747.33	542.74	-362.04	480.7	204.59	-417.41	485.06	196.16	-428.98	424.12	207.28	-374.94	426.55	214.11	-364.02	818.19	160.7	-434.52	819.39	146.28	-419.12	745.37	159.67	-354.32	745.62	172.25
83	0.34281	-143.08	1770	249.88	-358.41	1575.9	518.75	-382.33	1544.2	58.606	-380.3	1096.6	513.23	-369.21	1036.4	164.18	-595.48	1092.9	381.2	-583.07	1100.4	249.2	-605.71	1066.8	313.39	-393.84	1150.8	120.83	-417.99	1212.8	512.96	-432.16	958.09	123.99	-445.21	984.09	554.29	-376.2	582.11	527.61	-329.62	565.68	400.19	-372.48	564.26	346.18	-398.38	566.59	190.64	-544.33	73.185	437.41	-256.9	82.708	262.09	-616.23	110.97	384.3	-334.34	56.966	321.14	-369.04	46.877	193.93	-649.87	129.21	512.99	-691.52	256.64	480.69	-671.43	254.23	379.73	-458.39	131.21	305.8	-492.22	122.25	240.28	-579.69	78.62	286.21	-781.22	292.63	412.34	-569.36	49.429	254.67	-794.89	272.58	447.4	-558.38	48.883	318.14	-789.81	265.43	387.58	-547.54	508.73	516.84	-503.06	456.42	542.23	-548.28	398.11	522.14	-586.67	435.91	506.24	-453.64	834.62	544.55	-389.14	868.06	549.33	-367.7	778.88	550.39	-428.71	748.17	542.25	-359.87	480.55	204.56	-415.21	485.19	196.11	-427.09	424.33	207.23	-373.04	426.49	214.06	-359.34	818.14	160.5	-429.77	819.86	146	-414.94	745.73	159.47	-350.16	745.51	172.13
84	0.34699	-136.74	1770.4	250.5	-352.85	1576.4	518.99	-375.77	1545.1	58.812	-374.03	1097.4	512.49	-363.33	1036.7	163.62	-589.36	1093.6	380.81	-577.02	1101.1	248.78	-599.63	1067.4	313	-387.88	1151.6	120.47	-411.87	1213	512.82	-426.53	958.51	123.52	-438.64	984.86	553.79	-365.41	583.27	526.79	-318.55	567.55	399.31	-369.78	564.19	346.11	-395.76	566.64	190.59	-523.44	72.965	436.95	-256.74	82.524	262.06	-596.58	108.71	384.04	-334.24	56.95	321.09	-368.97	46.901	193.95	-630.3	126.11	512.87	-675.44	252.35	480.62	-655.69	250.38	379.58	-457.94	131.57	305.81	-491.74	122.79	240.26	-579.5	79.208	286.2	-766.55	285.98	412.61	-569.25	49.946	254.66	-779.49	265.59	447.67	-558.24	49.403	318.11	-774.29	258.46	387.82	-535.68	506.94	516.87	-490.25	455.34	541.93	-534.66	396.31	521.94	-573.69	433.5	506.31	-445.5	835.23	544.08	-381.26	869.26	548.71	-359	780.32	549.73	-419.73	749.01	541.76	-357.67	480.4	204.53	-412.99	485.32	196.06	-425.17	424.54	207.17	-371.11	426.42	214.02	-354.68	818.07	160.31	-425.03	820.3	145.73	-410.75	746.07	159.29	-346	745.38	172.02
